<svg width="41" height="31" viewBox="0 0 41 31" fill="none" xmlns="http://www.w3.org/2000/svg">
<path d="M36.8157 29.1364C36.8157 29.498 36.672 29.8449 36.4163 30.1006C36.1606 30.3563 35.8137 30.5 35.4521 30.5H10.9066C10.545 30.5 10.1981 30.3563 9.94238 30.1006C9.68665 29.8449 9.54298 29.498 9.54298 29.1364C9.54298 28.7747 9.68665 28.4279 9.94238 28.1721C10.1981 27.9164 10.545 27.7727 10.9066 27.7727H35.4521C35.8137 27.7727 36.1606 27.9164 36.4163 28.1721C36.672 28.4279 36.8157 28.7747 36.8157 29.1364ZM40.9066 15.5V19.5909C40.9066 19.9526 40.763 20.2994 40.5072 20.5551C40.2515 20.8109 39.9046 20.9545 39.543 20.9545H9.04355C7.57556 20.9613 6.14508 20.491 4.9674 19.6146C3.78972 18.7382 2.92853 17.503 2.51344 16.0949L0.115144 8.10227C-0.00704035 7.69523 -0.0324066 7.26526 0.0410687 6.84667C0.114544 6.42808 0.284827 6.03245 0.538335 5.69135C0.791842 5.35025 1.12156 5.07312 1.50118 4.88206C1.8808 4.69099 2.29981 4.59129 2.7248 4.59091H4.08844C4.44962 4.59108 4.79598 4.73452 5.05151 4.98977L8.74526 8.68182H12.5788L11.0447 4.08977C10.908 3.67965 10.8707 3.24291 10.936 2.81555C11.0012 2.3882 11.1672 1.98248 11.42 1.63186C11.6729 1.28124 12.0056 0.99576 12.3905 0.798965C12.7754 0.60217 13.2016 0.499698 13.6339 0.500001H14.9975C15.1767 0.49986 15.3541 0.535012 15.5196 0.603451C15.6851 0.671889 15.8356 0.772272 15.9623 0.898864L23.7453 8.68182H34.0884C35.8967 8.68182 37.631 9.40016 38.9096 10.6788C40.1883 11.9575 40.9066 13.6917 40.9066 15.5ZM38.1793 15.5C38.1793 14.415 37.7483 13.3745 36.9811 12.6073C36.214 11.8401 35.1734 11.4091 34.0884 11.4091H23.1793C22.8182 11.4089 22.4718 11.2655 22.2163 11.0102L14.4333 3.22727H13.6339L15.7629 9.61421C15.8312 9.81906 15.8498 10.0372 15.8173 10.2507C15.7848 10.4642 15.7021 10.6669 15.5759 10.8421C15.4498 11.0174 15.2838 11.1602 15.0917 11.2587C14.8996 11.3573 14.6868 11.4088 14.4708 11.4091H8.17935C8.00022 11.4092 7.82282 11.3741 7.65728 11.3056C7.49174 11.2372 7.34131 11.1368 7.21458 11.0102L3.52424 7.31818H2.7248L5.1231 15.3125C5.37245 16.1576 5.8896 16.8987 6.59668 17.4244C7.30375 17.9501 8.16248 18.2319 9.04355 18.2273H38.1793V15.5Z" fill="#DF6D14"/>
</svg>
